<?xml version="1.0" encoding="utf-8"?>
<!DOCTYPE svg PUBLIC "-//W3C//DTD SVG 1.1//EN" "http://www.w3.org/Graphics/SVG/1.1/DTD/svg11.dtd">
<svg version="1.1" xmlns="http://www.w3.org/2000/svg" xmlns:xlink="http://www.w3.org/1999/xlink" x="0px" y="0px" viewBox="0 0 1000 1000" enable-background="new 0 0 1000 1000" xml:space="preserve">
<g><path d="M974.7,16c12,8.7,17,20.4,14.8,35l-140,840c-1.8,10.6-7.7,18.8-17.5,24.6c-5.1,2.9-10.8,4.4-17,4.4c-4,0-8.4-0.9-13.1-2.7L554.2,816.1L421.8,977.4c-6.6,8.4-15.5,12.6-26.8,12.6c-4.7,0-8.7-0.7-12-2.2c-6.9-2.6-12.5-6.8-16.7-12.9c-4.2-6-6.3-12.7-6.3-20V764.1L832.5,185L247.9,690.9l-216-88.6c-13.5-5.1-20.8-15.1-21.9-30.1c-0.7-14.6,5.1-25.3,17.5-32.3l910-525C943,11.6,948.8,10,955,10C962.3,10,968.9,12,974.7,16L974.7,16z"/></g>
</svg>